<svg id="code-24px" xmlns="http://www.w3.org/2000/svg" width="156.958" height="156.958" viewBox="0 0 156.958 156.958">
  <path id="Pfad_31" data-name="Pfad 31" d="M0,0H156.958V156.958H0Z" fill="none"/>
  <path id="Pfad_32" data-name="Pfad 32" d="M43.5,68.488,18,42.982,43.5,17.476A6.474,6.474,0,0,0,34.349,8.32L4.33,38.339a6.513,6.513,0,0,0,0,9.221L34.349,77.644A6.474,6.474,0,0,0,43.5,68.488Zm43.164,0,25.506-25.506L86.668,17.476A6.474,6.474,0,0,1,95.824,8.32l30.018,30.018a6.513,6.513,0,0,1,0,9.221L95.824,77.644a6.474,6.474,0,0,1-9.156-9.156Z" transform="translate(13.393 35.497)"/>
</svg>
