<svg xmlns="http://www.w3.org/2000/svg" width="115.145" height="76.763" viewBox="0 0 115.145 76.763">
  <path id="phonelink-24px" d="M19.191,18.393a4.812,4.812,0,0,1,4.8-4.8h76.763a4.8,4.8,0,1,0,0-9.6H19.191a9.624,9.624,0,0,0-9.6,9.6V66.37H7.2a7.2,7.2,0,0,0,0,14.393H59.971a7.2,7.2,0,0,0,0-14.393H19.191Zm91.156,4.8H81.561a4.812,4.812,0,0,0-4.8,4.8V75.965a4.812,4.812,0,0,0,4.8,4.8h28.786a4.812,4.812,0,0,0,4.8-4.8V27.988A4.812,4.812,0,0,0,110.347,23.191Zm-4.8,43.179H86.358V32.786h19.191Z" transform="translate(0 -4)"/>
</svg>
