<svg id="history-24px" xmlns="http://www.w3.org/2000/svg" width="105" height="95.57" viewBox="0 0 105 95.57">
  <path id="Pfad_29" data-name="Pfad 29" d="M0,0H105V95.57H0Z" fill="none"/>
  <path id="Pfad_30" data-name="Pfad 30" d="M59.364,3.014A44.9,44.9,0,0,0,13.146,47.792H4.212a2.462,2.462,0,0,0-1.747,4.229L16.39,65.952a2.476,2.476,0,0,0,3.544,0L33.859,52.021a2.487,2.487,0,0,0-1.8-4.229H23.128A34.874,34.874,0,0,1,58.565,12.965C77.132,13.213,92.754,28.786,93,47.294A34.9,34.9,0,0,1,58.066,82.619,34.483,34.483,0,0,1,36.7,75.256a4.983,4.983,0,0,0-6.189,7.811,44.3,44.3,0,0,0,27.551,9.5A44.89,44.89,0,0,0,102.986,46.5C102.337,23.164,82.772,3.661,59.364,3.014ZM56.818,27.891a3.765,3.765,0,0,0-3.743,3.732V49.931A5.031,5.031,0,0,0,55.52,54.21l15.572,9.2A3.74,3.74,0,1,0,74.936,57L60.561,48.488V31.572a3.755,3.755,0,0,0-3.743-3.682Z" transform="translate(0 0)"/>
</svg>
